<svg width="28" height="27" viewBox="0 0 28 27" fill="none" xmlns="http://www.w3.org/2000/svg">
<path d="M28 13.3348C28 20.0695 22.7586 25.6371 15.9497 26.5406C15.313 26.6247 14.6617 26.6686 14.0005 26.6686C13.2373 26.6686 12.4878 26.6107 11.758 26.4986C5.09127 25.4764 0 19.9714 0 13.3348C0 5.97038 6.26844 0 13.9995 0C21.7306 0 28 5.97038 28 13.3348Z" fill="#1877F2"/>
<path d="M15.9498 10.7079V13.6127H19.7226L19.1252 17.5257H15.9498V26.5411C15.3131 26.6252 14.6618 26.6691 14.0006 26.6691C13.2374 26.6691 12.4879 26.6112 11.7581 26.499V17.5257H8.27856V13.6127H11.7581V10.0585C11.7581 7.8535 13.6347 6.06519 15.9508 6.06519V6.06705C15.9576 6.06705 15.9635 6.06519 15.9704 6.06519H19.7236V9.44934H17.2712C16.5423 9.44934 15.9508 10.0127 15.9508 10.7069L15.9498 10.7079Z" fill="white"/>
</svg>
