<svg width="122" height="18" viewBox="0 0 122 18" fill="none" xmlns="http://www.w3.org/2000/svg">
<g clip-path="url(#clip0_371_1134)">
<path fill-rule="evenodd" clip-rule="evenodd" d="M9.68111 1.18577C9.62108 1.05567 9.52505 0.945495 9.40436 0.868268C9.28367 0.791041 9.14339 0.75 9.00011 0.75C8.85683 0.75 8.71655 0.791041 8.59587 0.868268C8.47518 0.945495 8.37914 1.05567 8.31911 1.18577L6.16661 5.85077L1.06586 6.45602C0.923552 6.47283 0.789032 6.53005 0.678226 6.62092C0.56742 6.71179 0.484965 6.8325 0.440621 6.96876C0.396277 7.10503 0.3919 7.25115 0.428007 7.38983C0.464115 7.5285 0.539196 7.65393 0.644364 7.75127L4.41686 11.2388L3.41561 16.2788C3.3878 16.4193 3.4008 16.5648 3.45307 16.6981C3.50534 16.8315 3.5947 16.9471 3.71058 17.0312C3.82646 17.1154 3.96401 17.1646 4.10698 17.1731C4.24995 17.1816 4.39236 17.1489 4.51736 17.079L9.00011 14.5695L13.4829 17.079C13.6079 17.1492 13.7505 17.1821 13.8937 17.1737C14.0369 17.1653 14.1747 17.116 14.2907 17.0317C14.4068 16.9474 14.4962 16.8316 14.5484 16.698C14.6006 16.5644 14.6135 16.4187 14.5854 16.278L13.5841 11.2395L17.3559 7.75127C17.461 7.65393 17.5361 7.5285 17.5722 7.38983C17.6083 7.25115 17.6039 7.10503 17.5596 6.96876C17.5153 6.8325 17.4328 6.71179 17.322 6.62092C17.2112 6.53005 17.0767 6.47283 16.9344 6.45602L11.8329 5.85002L9.68111 1.18577Z" fill="#FFCC4D"/>
</g>
<g clip-path="url(#clip1_371_1134)">
<path fill-rule="evenodd" clip-rule="evenodd" d="M35.6811 1.18577C35.6211 1.05567 35.525 0.945495 35.4044 0.868268C35.2837 0.791041 35.1434 0.75 35.0001 0.75C34.8568 0.75 34.7166 0.791041 34.5959 0.868268C34.4752 0.945495 34.3791 1.05567 34.3191 1.18577L32.1666 5.85077L27.0659 6.45602C26.9236 6.47283 26.789 6.53005 26.6782 6.62092C26.5674 6.71179 26.485 6.8325 26.4406 6.96876C26.3963 7.10503 26.3919 7.25115 26.428 7.38983C26.4641 7.5285 26.5392 7.65393 26.6444 7.75127L30.4169 11.2388L29.4156 16.2788C29.3878 16.4193 29.4008 16.5648 29.4531 16.6981C29.5053 16.8315 29.5947 16.9471 29.7106 17.0312C29.8265 17.1154 29.964 17.1646 30.107 17.1731C30.25 17.1816 30.3924 17.1489 30.5174 17.079L35.0001 14.5695L39.4829 17.079C39.6079 17.1492 39.7505 17.1821 39.8937 17.1737C40.0369 17.1653 40.1747 17.116 40.2907 17.0317C40.4068 16.9474 40.4962 16.8316 40.5484 16.698C40.6006 16.5644 40.6135 16.4187 40.5854 16.278L39.5841 11.2395L43.3559 7.75127C43.461 7.65393 43.5361 7.5285 43.5722 7.38983C43.6083 7.25115 43.6039 7.10503 43.5596 6.96876C43.5153 6.8325 43.4328 6.71179 43.322 6.62092C43.2112 6.53005 43.0767 6.47283 42.9344 6.45602L37.8329 5.85002L35.6811 1.18577Z" fill="#FFCC4D"/>
</g>
<g clip-path="url(#clip2_371_1134)">
<path fill-rule="evenodd" clip-rule="evenodd" d="M61.6811 1.18577C61.6211 1.05567 61.525 0.945495 61.4044 0.868268C61.2837 0.791041 61.1434 0.75 61.0001 0.75C60.8568 0.75 60.7166 0.791041 60.5959 0.868268C60.4752 0.945495 60.3791 1.05567 60.3191 1.18577L58.1666 5.85077L53.0659 6.45602C52.9236 6.47283 52.789 6.53005 52.6782 6.62092C52.5674 6.71179 52.485 6.8325 52.4406 6.96876C52.3963 7.10503 52.3919 7.25115 52.428 7.38983C52.4641 7.5285 52.5392 7.65393 52.6444 7.75127L56.4169 11.2388L55.4156 16.2788C55.3878 16.4193 55.4008 16.5648 55.4531 16.6981C55.5053 16.8315 55.5947 16.9471 55.7106 17.0312C55.8265 17.1154 55.964 17.1646 56.107 17.1731C56.25 17.1816 56.3924 17.1489 56.5174 17.079L61.0001 14.5695L65.4829 17.079C65.6079 17.1492 65.7505 17.1821 65.8937 17.1737C66.0369 17.1653 66.1747 17.116 66.2907 17.0317C66.4068 16.9474 66.4962 16.8316 66.5484 16.698C66.6006 16.5644 66.6135 16.4187 66.5854 16.278L65.5841 11.2395L69.3559 7.75127C69.461 7.65393 69.5361 7.5285 69.5722 7.38983C69.6083 7.25115 69.6039 7.10503 69.5596 6.96876C69.5153 6.8325 69.4328 6.71179 69.322 6.62092C69.2112 6.53005 69.0767 6.47283 68.9344 6.45602L63.8329 5.85002L61.6811 1.18577Z" fill="#FFCC4D"/>
</g>
<g clip-path="url(#clip3_371_1134)">
<path fill-rule="evenodd" clip-rule="evenodd" d="M87.6811 1.18577C87.6211 1.05567 87.525 0.945495 87.4044 0.868268C87.2837 0.791041 87.1434 0.75 87.0001 0.75C86.8568 0.75 86.7166 0.791041 86.5959 0.868268C86.4752 0.945495 86.3791 1.05567 86.3191 1.18577L84.1666 5.85077L79.0659 6.45602C78.9236 6.47283 78.789 6.53005 78.6782 6.62092C78.5674 6.71179 78.485 6.8325 78.4406 6.96876C78.3963 7.10503 78.3919 7.25115 78.428 7.38983C78.4641 7.5285 78.5392 7.65393 78.6444 7.75127L82.4169 11.2388L81.4156 16.2788C81.3878 16.4193 81.4008 16.5648 81.4531 16.6981C81.5053 16.8315 81.5947 16.9471 81.7106 17.0312C81.8265 17.1154 81.964 17.1646 82.107 17.1731C82.25 17.1816 82.3924 17.1489 82.5174 17.079L87.0001 14.5695L91.4829 17.079C91.6079 17.1492 91.7505 17.1821 91.8937 17.1737C92.0369 17.1653 92.1747 17.116 92.2907 17.0317C92.4068 16.9474 92.4962 16.8316 92.5484 16.698C92.6006 16.5644 92.6135 16.4187 92.5854 16.278L91.5841 11.2395L95.3559 7.75127C95.461 7.65393 95.5361 7.5285 95.5722 7.38983C95.6083 7.25115 95.6039 7.10503 95.5596 6.96876C95.5153 6.8325 95.4328 6.71179 95.322 6.62092C95.2112 6.53005 95.0767 6.47283 94.9344 6.45602L89.8329 5.85002L87.6811 1.18577Z" fill="#FFCC4D"/>
</g>
<g clip-path="url(#clip4_371_1134)">
<path fill-rule="evenodd" clip-rule="evenodd" d="M113.681 1.18577C113.621 1.05567 113.525 0.945495 113.404 0.868268C113.284 0.791041 113.143 0.75 113 0.75C112.857 0.75 112.717 0.791041 112.596 0.868268C112.475 0.945495 112.379 1.05567 112.319 1.18577L110.167 5.85077L105.066 6.45602C104.924 6.47283 104.789 6.53005 104.678 6.62092C104.567 6.71179 104.485 6.8325 104.441 6.96876C104.396 7.10503 104.392 7.25115 104.428 7.38983C104.464 7.5285 104.539 7.65393 104.644 7.75127L108.417 11.2388L107.416 16.2788C107.388 16.4193 107.401 16.5648 107.453 16.6981C107.505 16.8315 107.595 16.9471 107.711 17.0312C107.826 17.1154 107.964 17.1646 108.107 17.1731C108.25 17.1816 108.392 17.1489 108.517 17.079L113 14.5695L117.483 17.079C117.608 17.1492 117.751 17.1821 117.894 17.1737C118.037 17.1653 118.175 17.116 118.291 17.0317C118.407 16.9474 118.496 16.8316 118.548 16.698C118.601 16.5644 118.613 16.4187 118.585 16.278L117.584 11.2395L121.356 7.75127C121.461 7.65393 121.536 7.5285 121.572 7.38983C121.608 7.25115 121.604 7.10503 121.56 6.96876C121.515 6.8325 121.433 6.71179 121.322 6.62092C121.211 6.53005 121.077 6.47283 120.934 6.45602L115.833 5.85002L113.681 1.18577Z" fill="#FFCC4D"/>
</g>
<defs>
<clipPath id="clip0_371_1134">
<rect width="18" height="18" fill="white"/>
</clipPath>
<clipPath id="clip1_371_1134">
<rect width="18" height="18" fill="white" transform="translate(26)"/>
</clipPath>
<clipPath id="clip2_371_1134">
<rect width="18" height="18" fill="white" transform="translate(52)"/>
</clipPath>
<clipPath id="clip3_371_1134">
<rect width="18" height="18" fill="white" transform="translate(78)"/>
</clipPath>
<clipPath id="clip4_371_1134">
<rect width="18" height="18" fill="white" transform="translate(104)"/>
</clipPath>
</defs>
</svg>
